PathFileType	4	(X/Y/Z)	 s11c0202.trc
DataRate	CameraRate	NumFrames	NumMarkers	Units	OrigDataRate	OrigDataStartFrame	OrigNumFrames
200	200	4	48	mm	200	1501	2000
Frame#	Time	racr			lacr			c7			jug			rlel			rdr			llel			ldr			s2			lic			ric			lasi			rasi			rpsi			lpsi			rgt			lgt			rth1			rth2			rth3			rth4			rlfc			rmfc			rsh1			rsh2			rsh3			rsh4			rlmal			rcal			rtoe			rmt5			lth1			lth2			lth4			lth3			llfc			lmfc			llmal			lcal			lmt5			lsh1			lsh2			lsh3			lsh4			ltoe			SBIKE			LBIKE			RBIKE			
		X1	Y1	Z1	X2	Y2	Z2	X3	Y3	Z3	X4	Y4	Z4	X5	Y5	Z5	X6	Y6	Z6	X7	Y7	Z7	X8	Y8	Z8	X9	Y9	Z9	X10	Y10	Z10	X11	Y11	Z11	X12	Y12	Z12	X13	Y13	Z13	X14	Y14	Z14	X15	Y15	Z15	X16	Y16	Z16	X17	Y17	Z17	X18	Y18	Z18	X19	Y19	Z19	X20	Y20	Z20	X21	Y21	Z21	X22	Y22	Z22	X23	Y23	Z23	X24	Y24	Z24	X25	Y25	Z25	X26	Y26	Z26	X27	Y27	Z27	X28	Y28	Z28	X29	Y29	Z29	X30	Y30	Z30	X31	Y31	Z31	X32	Y32	Z32	X33	Y33	Z33	X34	Y34	Z34	X35	Y35	Z35	X36	Y36	Z36	X37	Y37	Z37	X38	Y38	Z38	X39	Y39	Z39	X40	Y40	Z40	X41	Y41	Z41	X42	Y42	Z42	X43	Y43	Z43	X44	Y44	Z44	X45	Y45	Z45	X46	Y46	Z46	X47	Y47	Z47	X48	Y48	Z48	
1501	7.5050	557.148557	1314.357115	-111.981485	490.487789	1338.613420	-420.041385	466.046906	1449.300494	-246.576775	481.955729	1268.737052	-271.991898	568.098710	1105.032494	84.609774	765.301416	967.301312	-36.580239	509.955285	1078.343428	-573.426983	785.676906	961.597282	-445.925646	-94.337112	1220.770543	-206.595150	94.235219	1271.342283	-431.044482	142.304135	1194.617378	-27.050000	127.121904	1197.171178	-393.176506	163.922030	1135.312435	-63.410928	-39.029051	1287.490437	-143.615575	-57.097759	1291.878221	-236.827569	56.113958	1044.729037	-18.468343	37.057079	1154.256167	-447.143414	137.687835	926.000384	-11.817546	208.002488	869.722344	-18.219698	240.387048	790.655284	-38.593445	237.347328	892.280083	-22.902652	302.406233	706.078912	-57.413491	316.099705	695.049704	-183.027398	223.242545	571.072459	-49.941651	198.517682	488.953325	-72.404671	136.738534	427.879708	-77.741728	222.718178	480.020516	-101.722841	60.637760	312.160393	-95.805345	-1.605803	316.158895	-147.306338	253.887921	185.544485	-136.341886	177.292189	183.838273	-69.544710	180.664978	1103.254674	-459.087810	265.786588	1097.359186	-453.115709	278.183727	1129.418568	-437.601169	340.502773	1047.713587	-457.860239	472.560566	982.858956	-434.528174	482.314010	970.995084	-302.873463	286.966384	590.650283	-421.815045	221.031820	566.372246	-387.164334	399.944295	453.186372	-440.460796	424.603750	874.462638	-454.898709	413.118346	789.445917	-444.970448	360.293909	718.427438	-441.317804	442.426801	779.744551	-421.436712	494.408109	450.792153	-367.514146	-204.519944	953.760881	-259.802287	1.478698	83.086139	-460.942762	-15.139335	81.201043	-62.356068	
1502	7.5100	557.751183	1310.451735	-113.085356	489.293182	1337.350393	-420.120405	465.680152	1448.532490	-246.631754	480.360057	1268.179319	-272.980735	568.157889	1104.088884	85.857701	764.858231	967.184437	-35.424594	508.922765	1078.298826	-573.704446	785.159191	960.642116	-448.145245	-94.553981	1221.230270	-205.548768	92.677564	1271.089202	-430.417489	141.790633	1195.239367	-25.095328	126.060251	1195.488940	-393.891442	162.667345	1134.850990	-62.239318	-39.554908	1287.803792	-143.208455	-57.165930	1292.016072	-236.041072	56.476420	1044.779730	-18.307312	34.932695	1152.882961	-446.060224	140.255476	927.429863	-11.882877	211.688827	872.297986	-18.269910	245.706866	793.903542	-38.434140	240.570717	895.370083	-22.864764	309.301989	710.266176	-56.694943	322.858181	699.788998	-182.910568	226.922221	576.892730	-49.889272	200.455987	495.451983	-72.326025	137.370353	435.699893	-77.889869	224.554407	485.809684	-101.592633	58.542532	322.432851	-95.964936	-3.206850	328.559213	-147.751844	247.051635	188.139662	-136.427720	170.435981	189.549047	-69.790034	178.937235	1099.065293	-458.846639	263.778975	1091.478095	-453.039448	276.815723	1123.414179	-437.902587	337.633220	1040.553849	-457.726794	469.568985	973.642301	-434.212654	479.272347	960.766030	-302.937334	286.644499	578.031477	-424.372351	220.863132	549.962209	-388.686631	405.968998	446.725133	-440.777711	422.202560	863.768723	-456.515009	410.940072	778.872180	-445.979936	358.373452	707.627605	-442.460327	440.154121	769.309069	-422.178332	500.048069	450.309777	-367.016336	-204.502508	953.788990	-259.796921	1.484382	83.058396	-460.945877	-15.139265	81.197627	-62.368419	
1503	7.5150	558.282688	1306.561339	-114.279714	488.018795	1336.494709	-420.486880	465.245468	1447.845548	-246.386342	478.716332	1267.659290	-273.477329	567.934844	1103.088671	86.990882	764.357609	967.006682	-34.297902	508.462020	1078.622027	-573.801160	784.639017	959.398821	-450.369962	-94.764267	1221.155980	-204.743310	91.341709	1270.494821	-429.805858	140.694239	1195.749319	-23.631572	125.234444	1193.517084	-394.638532	161.340165	1134.164175	-60.771714	-40.161580	1287.900520	-142.765401	-57.225626	1291.931662	-235.383173	57.168389	1044.536285	-18.529277	33.042707	1151.039414	-444.813903	142.209445	928.107754	-11.338313	215.556182	874.896315	-18.446408	251.157525	797.213191	-38.344744	244.008934	898.574597	-22.961068	316.403268	714.537371	-56.069963	329.666939	704.615912	-182.563119	230.818925	582.885757	-49.822493	202.680146	501.942727	-72.224000	138.228133	443.745026	-78.011372	226.762715	491.877949	-101.372981	57.039815	332.624879	-96.002139	-3.417643	341.433854	-147.623837	240.668584	191.238409	-136.773344	164.058098	195.655529	-70.177572	177.236516	1094.152384	-458.478231	262.140186	1085.065372	-452.840394	275.511161	1116.689093	-438.247913	335.120737	1032.793475	-457.709250	465.238282	963.922694	-435.369530	476.163538	949.904105	-303.073198	286.079266	564.257789	-426.077622	220.773964	532.801163	-390.058523	411.657228	440.096267	-440.836832	419.190010	852.002704	-457.873647	408.052902	767.231280	-446.430031	355.862343	695.938220	-443.270090	437.379859	757.833432	-422.872244	504.844438	449.134866	-366.158077	-204.536681	953.718938	-259.788048	1.488733	83.024775	-460.987055	-15.133277	81.185614	-62.370587	
1504	7.5200	558.424843	1303.163724	-115.108474	486.762280	1336.298635	-421.035755	464.844460	1447.522850	-246.238404	476.534070	1267.891854	-273.828539	567.325677	1102.215431	87.947834	763.758104	966.859135	-33.316886	508.519535	1079.164443	-573.774403	784.704385	958.348689	-451.685365	-94.853937	1220.801686	-204.017595	90.148556	1269.506675	-429.071902	139.470913	1196.379671	-22.298254	124.594264	1191.261089	-394.940518	159.865141	1133.461667	-59.346571	-40.751436	1287.757559	-142.470898	-57.360789	1291.454587	-234.658619	57.743898	1044.636432	-18.598184	31.928704	1149.160177	-443.899440	144.965284	929.290092	-11.646232	219.532888	877.548602	-18.686620	256.708174	800.641582	-38.434943	247.503848	901.773215	-23.186820	323.526291	718.737289	-55.460905	336.292684	709.523810	-182.319990	234.902663	589.261064	-49.778791	205.228251	508.831280	-72.055737	139.686734	451.776116	-78.139887	229.310427	498.056872	-101.072246	56.136144	343.054251	-96.050668	-3.514927	354.462909	-147.693666	234.444135	194.520521	-137.273585	158.154613	201.975896	-70.605956	175.682042	1088.808479	-458.063690	260.483265	1078.049876	-452.817150	274.554335	1109.625630	-438.736190	332.333092	1024.483958	-457.906459	462.476858	953.353640	-434.012623	472.930568	938.541328	-303.196651	285.255704	549.848551	-426.912656	220.709305	514.930077	-391.502856	416.888234	432.877754	-440.922339	415.573397	839.424130	-458.462086	404.751673	754.800609	-446.684041	353.019507	683.043594	-443.634138	434.185169	745.516777	-423.351329	508.885075	447.155928	-365.415582	-204.559100	953.691736	-259.765757	1.456875	82.972505	-460.950891	-15.125184	81.173735	-62.364938	
